<?xml version="1.0" standalone="no"?>
<!DOCTYPE svg PUBLIC "-//W3C//DTD SVG 20010904//EN"
 "http://www.w3.org/TR/2001/REC-SVG-20010904/DTD/svg10.dtd">
<svg version="1.0" xmlns="http://www.w3.org/2000/svg"
 width="500.000000pt" height="500.000000pt" viewBox="0 0 500.000000 500.000000"
 preserveAspectRatio="xMidYMid meet">
<metadata>
Created by potrace 1.14, written by Peter Selinger 2001-2017
</metadata>
<g transform="translate(0.000000,500.000000) scale(0.100000,-0.100000)"
fill="#000000" stroke="none">
<path d="M2588 4764 c-2 -1 -35 -5 -73 -7 -312 -21 -712 -210 -1003 -473 -227
-206 -440 -527 -546 -824 -46 -130 -55 -165 -70 -280 -6 -45 -18 -177 -17
-195 4 -99 11 -217 15 -240 3 -16 8 -47 11 -68 4 -21 14 -55 23 -75 8 -20 16
-39 17 -42 1 -9 78 -143 111 -195 17 -27 55 -72 84 -99 32 -30 54 -60 56 -75
2 -14 4 -99 5 -187 2 -136 -1 -165 -15 -185 -9 -13 -16 -36 -16 -51 0 -16 -4
-28 -10 -28 -5 0 -17 -14 -25 -30 -13 -25 -15 -54 -11 -153 5 -125 8 -244 7
-284 -1 -26 -28 -31 -62 -12 -11 6 -28 12 -37 14 -18 3 -220 58 -374 101 -105
29 -98 29 -168 3 -120 -44 -193 -144 -194 -268 0 -77 16 -118 77 -187 42 -48
169 -117 267 -145 25 -7 50 -17 57 -22 7 -5 17 -6 23 -2 5 3 10 1 10 -5 0 -6
5 -8 10 -5 6 4 17 2 24 -4 8 -7 18 -11 22 -10 5 1 12 0 17 -1 4 -1 10 -3 15
-4 4 -1 39 -11 77 -23 123 -36 309 -83 330 -83 57 1 151 51 173 92 12 22 17
23 130 23 133 0 163 10 199 64 18 27 23 48 23 100 0 36 4 61 8 56 24 -34 206
-140 327 -191 152 -64 371 -125 530 -148 164 -24 542 -24 736 0 191 23 403 64
518 100 148 46 291 108 291 128 0 5 3 6 7 3 7 -7 64 25 102 57 32 27 169 165
201 202 77 89 158 228 191 329 7 22 16 45 20 50 4 6 15 48 25 93 31 146 -1
255 -116 395 -80 98 -133 137 -318 233 -46 24 -95 52 -110 62 -23 15 -44 24
-122 47 -3 1 -13 5 -22 8 -25 9 -47 16 -53 17 -3 0 -18 6 -33 14 -15 8 -45 17
-67 20 -22 4 -47 8 -55 11 -19 5 -55 13 -153 31 -206 38 -340 51 -524 49 -95
0 -173 0 -173 2 0 1 30 27 68 59 135 113 299 283 349 362 10 15 21 32 26 37
78 97 181 310 244 505 62 193 87 336 87 505 0 169 -19 259 -75 370 -41 79
-131 198 -172 226 -17 13 -34 26 -37 29 -14 16 -173 109 -230 133 -88 38 -97
40 -295 63 -47 6 -333 13 -337 8z m-854 -2944 c9 0 16 -4 16 -8 0 -4 13 -13
29 -19 26 -10 29 -14 25 -49 -6 -55 -9 -67 -17 -81 -11 -17 -37 -17 -37 0 0 7
-9 18 -19 24 -12 7 -21 28 -24 55 -3 24 -9 59 -12 78 -6 31 -5 33 8 18 8 -10
22 -18 31 -18z"/>
</g>
</svg>
